<?xml version="1.0" encoding="UTF-8"?>
<svg width="36px" height="36px" viewBox="0 0 36 36" version="1.1" xmlns="http://www.w3.org/2000/svg" xmlns:xlink="http://www.w3.org/1999/xlink">
    <!-- Generator: Sketch 56.3 (81716) - https://sketch.com -->
    <title>Icon/Emotional Health</title>
    <desc>Created with Sketch.</desc>
    <g id="Icon/Emotional-Health" stroke="none" stroke-width="1" fill="none" fill-rule="evenodd">
        <circle id="Oval" stroke="#1E1E28" stroke-width="2" fill-rule="nonzero" cx="18" cy="13.9099026" r="5.625"></circle>
        <path d="M6.766958,32.2500283 L8.3913924,26.3787816 C8.75977868,25.0473109 11.7852808,24.0349026 15.3958892,24.0349026 L20.6070482,24.0349026 C24.2176566,24.0349026 27.2431587,25.0473109 27.611545,26.3787816 L29.2328665,32.2387772" id="Rectangle" stroke="#1E1E28" stroke-width="2" stroke-linecap="round" fill-rule="nonzero"></path>
        <path d="M19.4753559,25.1599026 C24.9951407,24.4130304 29.25,19.6838569 29.25,13.9612589 C29.25,7.71969216 24.1884216,2.65990258 17.9446482,2.65990258 C12.2399732,2.65990258 7.52216077,6.88367001 6.75,12.3734614" id="Oval" stroke="#1E1E28" stroke-width="2" transform="translate(18.000000, 13.909903) rotate(-45.000000) translate(-18.000000, -13.909903) "></path>
        <path d="M16.0013959,31.1542103 C17.202569,30.0562179 17.6037088,29.6308051 17.8496372,29.1731422 C17.9546418,28.977733 18,28.8129619 18,28.65 C18,28.2782847 17.7217153,28 17.35,28 C17.1315292,28 16.9052539,28.106353 16.761352,28.2753388 L16,29.1694035 L15.238648,28.2753388 C15.0947461,28.106353 14.8684708,28 14.65,28 C14.2782847,28 14,28.2782847 14,28.65 C14,28.8136971 14.0457769,28.9792621 14.1518149,29.1757537 C14.3987162,29.6332693 14.8025932,30.0606936 16.0013959,31.1542103 Z" id="Shape" stroke="#1E1E28" stroke-width="2" fill-rule="nonzero"></path>
    </g>
</svg>