<?xml version="1.0" encoding="UTF-8"?>
<svg width="36px" height="36px" viewBox="0 0 36 36" version="1.1" xmlns="http://www.w3.org/2000/svg" xmlns:xlink="http://www.w3.org/1999/xlink">
    <!-- Generator: Sketch 56.3 (81716) - https://sketch.com -->
    <title>Icon/prenatal</title>
    <desc>Created with Sketch.</desc>
    <g id="Icon/prenatal" stroke="none" stroke-width="1" fill="none" fill-rule="evenodd">
        <g id="Group" transform="translate(10.000000, 3.000000)" fill-rule="nonzero" stroke="#1E1E28" stroke-width="2">
            <circle id="Oval" cx="9" cy="4" r="4"></circle>
            <path d="M8.35307938,31.6043789 C11.6667879,31.6043789 14.3530794,28.9180874 14.3530794,25.6043789 C14.3530794,25.4262756 14.3453193,25.2499848 14.3301187,25.0758261 C14.2050304,23.6426426 13.5760791,22.3538466 12.6214093,21.387583 C11.5336551,20.2866187 10.0230401,19.6043789 8.35307938,19.6043789 C6.46287142,19.6043789 4.44194386,20.6789251 3.37885395,22.2492215" id="Oval-Copy-2" transform="translate(8.865967, 25.604379) rotate(-242.000000) translate(-8.865967, -25.604379) "></path>
            <path d="M9.49121094,11 C9.80137682,11 10.2578384,11 10.8605957,11 C11.0813302,11 11.4124319,11 11.8539009,11 C13.7113002,11 14.6499443,11.8799901 15.5140381,12.5 C15.7342856,12.6580334 16.3614829,14.5634289 17.3956299,18.2161865 C14.1846365,22.0112712 12.3373935,23.7381185 11.8539009,23.3967285" id="Rectangle" stroke-linecap="round"></path>
            <path d="M1,11 C1.31391644,11 1.77589761,11 2.38594351,11 C2.60934715,11 2.9444526,11 3.39125988,11 C5.27111899,11 6.22111332,11.8799901 7.0956558,12.5 C7.31856662,12.6580334 7.95334802,14.5634289 9,18.2161865 C5.7501789,22.0112712 3.88059886,23.7381185 3.39125988,23.3967285" id="Rectangle-Copy-2" stroke-linecap="round" transform="translate(5.000000, 17.219496) scale(-1, 1) translate(-5.000000, -17.219496) "></path>
        </g>
        <path d="M15.2527388,18 C14.2628372,20.3235543 16.9866575,20.3259318 15.5322799,23" id="Path-6" stroke="#1E1E28" stroke-width="2"></path>
        <path d="M22.573861,17.8204346 C21.5839594,20.4366455 24.0282387,20.1743078 22.573861,23.1851807" id="Path-6-Copy" stroke="#1E1E28" stroke-width="1.75" transform="translate(22.689514, 20.502808) scale(-1, 1) rotate(1.000000) translate(-22.689514, -20.502808) "></path>
    </g>
</svg>