<?xml version="1.0" encoding="UTF-8"?>
<svg width="36px" height="36px" viewBox="0 0 36 36" version="1.1" xmlns="http://www.w3.org/2000/svg" xmlns:xlink="http://www.w3.org/1999/xlink">
    <!-- Generator: Sketch 56.3 (81716) - https://sketch.com -->
    <title>Icon/Flexibility</title>
    <desc>Created with Sketch.</desc>
    <defs>
        <polygon id="path-1" points="5.2173913e-05 0.0099643104 20.908487 0.0099643104 20.908487 5 5.2173913e-05 5"></polygon>
        <polygon id="path-3" points="5.2173913e-05 0.0099643104 20.908487 0.0099643104 20.908487 5 5.2173913e-05 5"></polygon>
        <polygon id="path-5" points="5.2173913e-05 0.0099643104 20.908487 0.0099643104 20.908487 5 5.2173913e-05 5"></polygon>
    </defs>
    <g id="Icon/Flexibility" stroke="none" stroke-width="1" fill="none" fill-rule="evenodd">
        <g id="Group-7" transform="translate(8.000000, 8.000000)">
            <g id="Group-6">
                <mask id="mask-2" fill="white">
                    <use xlink:href="#path-1"></use>
                </mask>
                <g id="Clip-5"></g>
                <path d="M5.2173913e-05,2.36146429 C0.285965217,1.62110714 0.567704348,0.892178571 0.850486957,0.160035714 C1.12674783,0.353428571 1.39426957,0.547535714 1.66596522,0.729678571 C2.6180087,1.36842857 3.59861739,1.90253571 4.63635652,2.22182143 C5.38674783,2.45289286 6.1460087,2.552 6.9144,2.47521429 C7.68070435,2.39842857 8.42274783,2.15592857 9.14809565,1.81932143 C9.80770435,1.51325 10.4619652,1.18557143 11.1206609,0.875214286 C11.8467913,0.532892857 12.5875304,0.26575 13.3491391,0.121464286 C14.0067913,-0.00317857143 14.6671826,-0.0210357143 15.3296609,0.0564642857 C16.7300087,0.220214286 18.0487043,0.787714286 19.320313,1.57646429 C19.8360522,1.89628571 20.3366609,2.262 20.8440522,2.60735714 C20.8627043,2.61985714 20.8801826,2.63610714 20.908487,2.65896429 C20.6216609,3.39217857 20.3361391,4.12164286 20.0484,4.85717857 C19.8626609,4.72325 19.6842261,4.59164286 19.5039652,4.46467857 C18.6832696,3.887 17.8402696,3.38271429 16.9540957,3.022 C16.1116174,2.67896429 15.2536174,2.47914286 14.3721391,2.51110714 C13.5565304,2.54075 12.765313,2.767 11.9941826,3.11789286 C11.2671391,3.44878571 10.5479217,3.81164286 9.82270435,4.14967857 C9.0987913,4.487 8.3604,4.74967857 7.60113913,4.88896429 C7.07066087,4.98646429 6.53796522,5.02092857 6.0024,4.98771429 C4.43992174,4.89075 2.97357391,4.28307143 1.55874783,3.41396429 C1.04757391,3.09985714 0.5514,2.74021429 0.0484434783,2.40128571 C0.0351391304,2.39217857 0.0227478261,2.38003571 5.2173913e-05,2.36146429" id="Fill-4" fill="#231F20" mask="url(#mask-2)"></path>
            </g>
        </g>
        <g id="Group-7-Copy" transform="translate(8.000000, 16.000000)">
            <g id="Group-6">
                <mask id="mask-4" fill="white">
                    <use xlink:href="#path-3"></use>
                </mask>
                <g id="Clip-5"></g>
                <path d="M5.2173913e-05,2.36146429 C0.285965217,1.62110714 0.567704348,0.892178571 0.850486957,0.160035714 C1.12674783,0.353428571 1.39426957,0.547535714 1.66596522,0.729678571 C2.6180087,1.36842857 3.59861739,1.90253571 4.63635652,2.22182143 C5.38674783,2.45289286 6.1460087,2.552 6.9144,2.47521429 C7.68070435,2.39842857 8.42274783,2.15592857 9.14809565,1.81932143 C9.80770435,1.51325 10.4619652,1.18557143 11.1206609,0.875214286 C11.8467913,0.532892857 12.5875304,0.26575 13.3491391,0.121464286 C14.0067913,-0.00317857143 14.6671826,-0.0210357143 15.3296609,0.0564642857 C16.7300087,0.220214286 18.0487043,0.787714286 19.320313,1.57646429 C19.8360522,1.89628571 20.3366609,2.262 20.8440522,2.60735714 C20.8627043,2.61985714 20.8801826,2.63610714 20.908487,2.65896429 C20.6216609,3.39217857 20.3361391,4.12164286 20.0484,4.85717857 C19.8626609,4.72325 19.6842261,4.59164286 19.5039652,4.46467857 C18.6832696,3.887 17.8402696,3.38271429 16.9540957,3.022 C16.1116174,2.67896429 15.2536174,2.47914286 14.3721391,2.51110714 C13.5565304,2.54075 12.765313,2.767 11.9941826,3.11789286 C11.2671391,3.44878571 10.5479217,3.81164286 9.82270435,4.14967857 C9.0987913,4.487 8.3604,4.74967857 7.60113913,4.88896429 C7.07066087,4.98646429 6.53796522,5.02092857 6.0024,4.98771429 C4.43992174,4.89075 2.97357391,4.28307143 1.55874783,3.41396429 C1.04757391,3.09985714 0.5514,2.74021429 0.0484434783,2.40128571 C0.0351391304,2.39217857 0.0227478261,2.38003571 5.2173913e-05,2.36146429" id="Fill-4" fill="#231F20" mask="url(#mask-4)"></path>
            </g>
        </g>
        <g id="Group-7-Copy-2" transform="translate(8.000000, 24.000000)">
            <g id="Group-6">
                <mask id="mask-6" fill="white">
                    <use xlink:href="#path-5"></use>
                </mask>
                <g id="Clip-5"></g>
                <path d="M5.2173913e-05,2.36146429 C0.285965217,1.62110714 0.567704348,0.892178571 0.850486957,0.160035714 C1.12674783,0.353428571 1.39426957,0.547535714 1.66596522,0.729678571 C2.6180087,1.36842857 3.59861739,1.90253571 4.63635652,2.22182143 C5.38674783,2.45289286 6.1460087,2.552 6.9144,2.47521429 C7.68070435,2.39842857 8.42274783,2.15592857 9.14809565,1.81932143 C9.80770435,1.51325 10.4619652,1.18557143 11.1206609,0.875214286 C11.8467913,0.532892857 12.5875304,0.26575 13.3491391,0.121464286 C14.0067913,-0.00317857143 14.6671826,-0.0210357143 15.3296609,0.0564642857 C16.7300087,0.220214286 18.0487043,0.787714286 19.320313,1.57646429 C19.8360522,1.89628571 20.3366609,2.262 20.8440522,2.60735714 C20.8627043,2.61985714 20.8801826,2.63610714 20.908487,2.65896429 C20.6216609,3.39217857 20.3361391,4.12164286 20.0484,4.85717857 C19.8626609,4.72325 19.6842261,4.59164286 19.5039652,4.46467857 C18.6832696,3.887 17.8402696,3.38271429 16.9540957,3.022 C16.1116174,2.67896429 15.2536174,2.47914286 14.3721391,2.51110714 C13.5565304,2.54075 12.765313,2.767 11.9941826,3.11789286 C11.2671391,3.44878571 10.5479217,3.81164286 9.82270435,4.14967857 C9.0987913,4.487 8.3604,4.74967857 7.60113913,4.88896429 C7.07066087,4.98646429 6.53796522,5.02092857 6.0024,4.98771429 C4.43992174,4.89075 2.97357391,4.28307143 1.55874783,3.41396429 C1.04757391,3.09985714 0.5514,2.74021429 0.0484434783,2.40128571 C0.0351391304,2.39217857 0.0227478261,2.38003571 5.2173913e-05,2.36146429" id="Fill-4" fill="#231F20" mask="url(#mask-6)"></path>
            </g>
        </g>
    </g>
</svg>